<svg xmlns="http://www.w3.org/2000/svg" version="1.1" xmlns:xlink="http://www.w3.org/1999/xlink" xmlns:svgjs="http://svgjs.dev/svgjs" width="1500" height="1500" viewBox="0 0 1500 1500"><rect width="1500" height="1500" fill="#ffffff"></rect><g transform="matrix(0.6666666666666666,0,0,0.6666666666666666,249.39414856478993,577.546255961712)"><svg viewBox="0 0 396 137" data-background-color="#ffffff" preserveAspectRatio="xMidYMid meet" height="518" width="1500" xmlns="http://www.w3.org/2000/svg" xmlns:xlink="http://www.w3.org/1999/xlink"><g id="tight-bounds" transform="matrix(1,0,0,1,0.23991716834319732,-0.08447027052469025)"><svg viewBox="0 0 395.52 137.1687748777357" height="137.1687748777357" width="395.52"><g><svg viewBox="0 0 658.871572263502 228.50072403203905" height="137.1687748777357" width="395.52"><g transform="matrix(1,0,0,1,0,40.43758936767118)"><svg viewBox="0 0 395.52 147.62554529669669" height="147.62554529669669" width="395.52"><g id="textblocktransform"><svg viewBox="0 0 395.52 147.62554529669669" height="147.62554529669669" width="395.52" id="textblock"><g><svg viewBox="0 0 395.52 147.62554529669669" height="147.62554529669669" width="395.52"><g transform="matrix(1,0,0,1,0,0)"><svg width="395.52" viewBox="-1.1 -38.311363635498 144.57999999999998 53.971363567897995" height="147.62554529669669" data-palette-color="#6b7280"><path d="M6.15-18.45L6.15-18.45Q6.2-18.9 6.45-19.53 6.7-20.15 7.13-20.73 7.55-21.3 8.15-21.78 8.75-22.25 9.5-22.4L9.5-22.4Q11.1-22.7 12.15-22.2 13.2-21.7 13.75-21.05L13.75-21.05Q13.95-20.75 13.9-20.7L13.9-20.7Q13.8-20.6 13.55-20.75L13.55-20.75Q13.25-20.95 12.58-21.1 11.9-21.25 11.13-21.18 10.35-21.1 9.63-20.7 8.9-20.3 8.45-19.4L8.45-19.4Q8.05-18.55 7.9-17.65 7.75-16.75 7.73-15.98 7.7-15.2 7.75-14.65 7.8-14.1 7.8-13.9L7.8-13.9Q7.9-13.35 7.98-12.53 8.05-11.7 8.05-10.85 8.05-10 8-9.18 7.95-8.35 7.8-7.75L7.8-7.75Q7.75-7.6 7.68-7.25 7.6-6.9 7.5-6.9L7.5-6.9Q7.25-6.9 7.25-7.25 7.25-7.6 7.25-7.75L7.25-7.75Q7.15-9 6.9-10.28 6.65-11.55 6.43-12.9 6.2-14.25 6.1-15.63 6-17 6.15-18.45ZM4.4-8.55L4.4-8.55Q4.45-9.55 4.23-11.38 4-13.2 4.05-15.6L4.05-15.6Q4.1-16.85 4.3-18.18 4.5-19.5 5.25-20.8L5.25-20.8Q6.05-22.2 7.28-22.88 8.5-23.55 9.4-23.5L9.4-23.5Q9.55-23.5 9.7-23.5 9.85-23.5 9.85-23.45L9.85-23.45Q9.85-23.35 9.8-23.38 9.75-23.4 9.45-23.3L9.45-23.3Q8.55-23.05 7.85-22.48 7.15-21.9 6.65-21.15 6.15-20.4 5.85-19.6 5.55-18.8 5.5-18.15L5.5-18.15Q5.2-15.4 5.55-13.35L5.55-13.35Q5.8-11.7 5.95-9.93 6.1-8.15 5.83-6.68 5.55-5.2 4.78-4.23 4-3.25 2.4-3.15L2.4-3.15Q2.25-3.15 2.02-3.18 1.8-3.2 1.8-3.3L1.8-3.3Q1.8-3.4 2.25-3.65L2.25-3.65Q3.55-4.25 3.95-5.4 4.35-6.55 4.4-8.55ZM-0.9-2.65L-0.9-2.65Q-0.2-1.55 1.33-1.03 2.85-0.5 4.95-1.1L4.95-1.1Q6-1.4 6.8-2.15 7.6-2.9 8.13-3.83 8.65-4.75 8.93-5.75 9.2-6.75 9.25-7.6L9.25-7.6Q9.3-9 9.18-10.35 9.05-11.7 8.88-12.98 8.7-14.25 8.58-15.45 8.45-16.65 8.55-17.8L8.55-17.8Q8.65-19.05 9.25-19.7 9.85-20.35 10.73-20.53 11.6-20.7 12.55-20.4 13.5-20.1 14.3-19.45L14.3-19.45Q14.5-19.35 14.45-19.2L14.45-19.2Q14.45-19.1 14.35-19.15 14.25-19.2 14.15-19.25L14.15-19.25Q12.3-19.85 11.28-19.6 10.25-19.35 10.15-17.8L10.15-17.8Q10.05-16 10.43-13.58 10.8-11.15 10.7-8.2L10.7-8.2Q10.75-7.2 10.48-5.9 10.2-4.6 9.58-3.38 8.95-2.15 7.93-1.2 6.9-0.25 5.5 0L5.5 0Q2.85 0.4 1.28-0.3-0.3-1-1-2.45L-1-2.45Q-1.1-2.75-1.1-2.8L-1.1-2.8-1.05-2.8Q-1.05-2.8-0.9-2.65ZM1.3-2.65L1.3-2.65Q2.25-2.4 3.6-2.45L3.6-2.45Q4.05-2.5 4.7-2.7 5.35-2.9 5.4-2.8L5.4-2.8Q5.55-2.6 5.1-2.3 4.65-2 3.95-1.78 3.25-1.55 2.5-1.48 1.75-1.4 1.25-1.6L1.25-1.6Q0.3-2-0.13-2.48-0.55-2.95-0.9-3.65L-0.9-3.65-1-3.85Q-1.1-4.05-1.05-4.1L-1.05-4.1Q-1-4.15-0.9-4.1L-0.9-4.1Q-0.85-4.05-0.85-4L-0.85-4Q-0.25-3.45 0.18-3.18 0.6-2.9 1.3-2.65ZM24.05-26.35L24.05-26.35Q23.2-23.4 22.12-20.3 21.05-17.2 19.9-14.45L19.9-14.45Q19.85-14.3 19.62-13.9 19.4-13.5 19.25-13.55L19.25-13.55Q19.15-13.55 19.12-14.03 19.1-14.5 19.15-14.75L19.15-14.75Q19.25-15.4 19.45-16.35 19.65-17.3 19.87-18.3 20.1-19.3 20.32-20.25 20.55-21.2 20.8-21.9L20.8-21.9Q20.9-22.2 21.15-23.2 21.4-24.2 21.7-25.6 22-27 22.32-28.6 22.65-30.2 22.87-31.7 23.1-33.2 23.2-34.45 23.3-35.7 23.15-36.35L23.15-36.35Q23-36.85 23.15-36.85L23.15-36.85Q23.25-36.85 23.32-36.73 23.4-36.6 23.5-36.5L23.5-36.5Q24-35.6 24.27-34.3 24.55-33 24.6-31.6 24.65-30.2 24.5-28.8 24.35-27.4 24.05-26.35ZM22.05-37.9L22.05-37.9Q22.7-35.35 22.37-32.55 22.05-29.75 21.25-26.85 20.45-23.95 19.45-20.98 18.45-18 17.75-15L17.75-15Q17.3-13.1 17.02-11.08 16.75-9.05 16.75-7.08 16.75-5.1 17.07-3.28 17.4-1.45 18.2 0L18.2 0Q18.3 0.2 18.27 0.3 18.25 0.4 17.95 0L17.95 0Q16.65-1.5 16.02-3.4 15.4-5.3 15.3-7.4 15.2-9.5 15.5-11.75 15.8-14 16.35-16.15L16.35-16.15Q17.1-19.15 18.02-22.05 18.95-24.95 19.77-27.7 20.6-30.45 21.15-33.02 21.7-35.6 21.7-38L21.7-38Q21.7-38.25 21.75-38.25L21.75-38.25Q21.95-38.25 22.05-37.9ZM31.15 0L31.15 0Q29.3-0.85 28.2-2.65 27.1-4.45 26.85-6.8L26.85-6.8Q26.6-9.1 26.85-10.63 27.1-12.15 27.45-13.65L27.45-13.65Q27.5-13.85 27.65-14.33 27.8-14.8 27.87-15.3 27.95-15.8 27.87-16.18 27.8-16.55 27.45-16.65L27.45-16.65Q26.75-16.8 25.85-16.03 24.95-15.25 24.12-14.1 23.3-12.95 22.62-11.73 21.95-10.5 21.75-9.8L21.75-9.8Q21.3-8.35 20.8-7.05 20.3-5.75 19.9-4.45L19.9-4.45Q19.75-3.9 19.65-3.95L19.65-3.95Q19.55-3.95 19.52-4.15 19.5-4.35 19.5-4.6L19.5-4.6Q19.5-6.6 19.8-8.63 20.1-10.65 20.62-12.65 21.15-14.65 21.8-16.65 22.45-18.65 23.05-20.7L23.05-20.7Q23.85-23.25 24.57-25.9 25.3-28.55 25.55-31.6L25.55-31.6Q25.55-31.85 25.55-31.88 25.55-31.9 25.6-31.9L25.6-31.9Q25.75-31.9 25.85-31.5L25.85-31.5Q26.1-30.85 26.07-29.68 26.05-28.5 25.87-27.1 25.7-25.7 25.37-24.25 25.05-22.8 24.7-21.65L24.7-21.65Q25.65-22.65 26.95-23.2 28.25-23.75 30.05-23.5L30.05-23.5Q32.1-23.2 33.2-22.03 34.3-20.85 34.7-19.2 35.1-17.55 34.92-15.68 34.75-13.8 34.3-12.05L34.3-12.05Q33.9-10.7 33.55-9.68 33.2-8.65 32.85-7.8 32.5-6.95 32.25-6.2 32-5.45 31.85-4.6L31.85-4.6Q31.75-4.05 31.65-4.05L31.65-4.05Q31.55-4.05 31.47-4.25 31.4-4.45 31.35-4.65L31.35-4.65Q31.05-5.75 31.32-7.35 31.6-8.95 32.05-10.73 32.5-12.5 32.87-14.33 33.25-16.15 33.17-17.7 33.1-19.25 32.35-20.43 31.6-21.6 29.8-22.05L29.8-22.05Q29.05-22.25 28.17-22.18 27.3-22.1 26.52-21.78 25.75-21.45 25.15-20.85 24.55-20.25 24.35-19.45L24.35-19.45Q25.3-20.45 26.8-21.1 28.3-21.75 29.7-21.3L29.7-21.3Q31-20.9 31.55-19.85 32.1-18.8 32.2-18L32.2-18Q32.4-16.25 31.97-14.83 31.55-13.4 31-12.1L31-12.1Q30.9-11.95 30.7-11.63 30.5-11.3 30.4-11.35L30.4-11.35Q30.3-11.35 30.3-11.75 30.3-12.15 30.35-12.35L30.35-12.35Q30.5-12.85 30.6-13.93 30.7-15 30.67-16.15 30.65-17.3 30.37-18.3 30.1-19.3 29.5-19.65L29.5-19.65Q28.8-20.05 27.8-19.88 26.8-19.7 25.65-18.65L25.65-18.65Q24.65-17.75 23.95-16.57 23.25-15.4 22.75-13.5L22.75-13.5Q23.05-14.05 23.7-15.05 24.35-16.05 25.17-16.95 26-17.85 26.92-18.38 27.85-18.9 28.7-18.5L28.7-18.5Q29.25-18.2 29.42-17.48 29.6-16.75 29.52-15.85 29.45-14.95 29.25-14.1 29.05-13.25 28.9-12.75L28.9-12.75Q28.35-11.25 28.15-9.47 27.95-7.7 28.17-6 28.4-4.3 29.15-2.8 29.9-1.3 31.35-0.25L31.35-0.25Q31.8 0 31.52 0 31.25 0 31.15 0ZM32.45-0.4L32.45-0.4Q31.75-0.8 31.12-1.25 30.5-1.7 29.9-3L29.9-3Q29.65-3.5 29.52-4.35 29.4-5.2 29.37-5.98 29.35-6.75 29.45-7.28 29.55-7.8 29.7-7.75L29.7-7.75Q29.8-7.75 29.9-7.53 30-7.3 30.05-7 30.1-6.7 30.15-6.43 30.2-6.15 30.2-6.05L30.2-6.05Q30.4-4.95 30.55-4.42 30.7-3.9 30.95-3.3L30.95-3.3Q31.35-2.5 31.75-1.85 32.15-1.2 32.75-0.65L32.75-0.65Q33-0.45 32.87-0.35 32.75-0.25 32.45-0.4ZM19.8 0L19.8 0Q19.85 0 19.72 0.05 19.6 0.1 19.25 0L19.25 0Q18.85-0.2 18.42-0.75 18-1.3 17.75-2.9L17.75-2.9Q17.65-3.55 17.65-4.48 17.65-5.4 17.72-6.23 17.8-7.05 17.95-7.65 18.1-8.25 18.3-8.2L18.3-8.2Q18.35-8.2 18.4-7.9 18.45-7.6 18.5-7.23 18.55-6.85 18.55-6.48 18.55-6.1 18.55-5.95L18.55-5.95Q18.6-4.85 18.67-4.33 18.75-3.8 18.9-2.9L18.9-2.9Q19.05-1.95 19.25-1.18 19.45-0.4 19.8 0ZM52.05-13.85L52.05-13.85Q52.2-15.2 52.1-16.7 52-18.2 51.47-19.48 50.95-20.75 49.87-21.6 48.8-22.45 47.05-22.45L47.05-22.45Q44.7-22.45 42.95-21.18 41.2-19.9 39.95-18.03 38.7-16.15 38-14.03 37.3-11.9 37.1-10.15L37.1-10.15Q36.8-7.75 37.02-6 37.25-4.25 37.85-3.13 38.45-2 39.37-1.45 40.3-0.9 41.4-0.9L41.4-0.9Q42.95-0.85 44.67-1.78 46.4-2.7 47.9-4.38 49.4-6.05 50.52-8.47 51.65-10.9 52.05-13.85ZM35.95-10.4L35.95-10.4Q36.15-12.4 36.95-14.8 37.75-17.2 39.17-19.25 40.6-21.3 42.6-22.68 44.6-24.05 47.25-24.05L47.25-24.05Q49.25-24.05 50.55-23.1 51.85-22.15 52.55-20.68 53.25-19.2 53.45-17.48 53.65-15.75 53.45-14.2L53.45-14.2Q53-10.6 51.7-7.95 50.4-5.3 48.65-3.53 46.9-1.75 44.95-0.88 43 0 41.2 0L41.2 0Q39.85 0 38.77-0.6 37.7-1.2 36.97-2.48 36.25-3.75 35.97-5.73 35.7-7.7 35.95-10.4ZM41.55-3.35L41.55-3.35Q41.3-3.35 41.05-3.53 40.8-3.7 40.65-3.95 40.5-4.2 40.45-4.45 40.4-4.7 40.65-4.8L40.65-4.8Q40.8-4.85 41.05-4.45 41.3-4.05 41.6-4.05L41.6-4.05Q42.1-4.05 42.77-4.7 43.45-5.35 44.07-6.23 44.7-7.1 45.17-7.95 45.65-8.8 45.85-9.2L45.85-9.2Q46.05-9.6 46.25-10.23 46.45-10.85 46.62-11.5 46.8-12.15 46.92-12.78 47.05-13.4 47.1-13.85L47.1-13.85Q47.35-16.1 47-17.32 46.65-18.55 45.85-18.55L45.85-18.55Q45.25-18.55 44.6-18.18 43.95-17.8 43.37-17.2 42.8-16.6 42.35-15.88 41.9-15.15 41.7-14.4L41.7-14.4Q41.45-13.55 41.35-13.55L41.35-13.55Q41.2-13.55 41.2-14.4L41.2-14.4Q41.35-15.35 41.85-16.28 42.35-17.2 43.1-17.93 43.85-18.65 44.75-19.13 45.65-19.6 46.6-19.6L46.6-19.6Q47.55-19.6 48.02-18.93 48.5-18.25 48.7-17.28 48.9-16.3 48.87-15.28 48.85-14.25 48.75-13.65L48.75-13.65Q48.55-12.3 48.12-11.03 47.7-9.75 47.1-8.45L47.1-8.45Q46.8-7.85 46.2-6.98 45.6-6.1 44.82-5.3 44.05-4.5 43.17-3.93 42.3-3.35 41.55-3.35ZM43.15-2.4L43.15-2.4Q43.2-2.1 42.67-1.9 42.15-1.7 41.6-1.7L41.6-1.7Q40.05-1.75 39.22-2.7 38.4-3.65 38.07-4.95 37.75-6.25 37.77-7.65 37.8-9.05 37.9-10L37.9-10Q38.1-11.65 38.7-13.7 39.3-15.75 40.4-17.55 41.5-19.35 43.1-20.58 44.7-21.8 46.9-21.8L46.9-21.8Q48.35-21.8 49.22-21.05 50.1-20.3 50.52-19.2 50.95-18.1 51.02-16.82 51.1-15.55 50.95-14.5L50.95-14.5Q50.85-13.35 50.6-12.4 50.35-11.45 49.9-10.3L49.9-10.3Q49.75-9.95 49.5-9.5 49.25-9.05 48.95-9.1L48.95-9.1Q48.8-9.15 48.87-9.5 48.95-9.85 49.07-10.38 49.2-10.9 49.35-11.48 49.5-12.05 49.55-12.55L49.55-12.55Q49.65-13.4 49.67-14.68 49.7-15.95 49.47-17.15 49.25-18.35 48.65-19.2 48.05-20.05 46.85-20.05L46.85-20.05Q45.1-20.05 43.62-18.93 42.15-17.8 41.05-16.18 39.95-14.55 39.27-12.78 38.6-11 38.45-9.65L38.45-9.65Q38.35-8.85 38.4-7.65 38.45-6.45 38.77-5.28 39.1-4.1 39.85-3.25 40.6-2.4 41.9-2.35L41.9-2.35Q42.3-2.3 42.67-2.43 43.05-2.55 43.15-2.4ZM68.89-20.4L68.89-20.4Q69.29-19.9 69.52-19.15 69.74-18.4 69.69-17.53 69.64-16.65 69.29-15.7 68.94-14.75 68.19-13.85L68.19-13.85Q66.74-12.15 65.02-11.23 63.29-10.3 61.89-10.3L61.89-10.3Q61.04-10.3 61.89-10.6L61.89-10.6Q62.34-10.75 62.97-11.08 63.59-11.4 64.29-11.88 64.99-12.35 65.72-13 66.44-13.65 67.04-14.5L67.04-14.5Q68.04-15.9 68.22-17.23 68.39-18.55 67.69-19.25L67.69-19.25Q67.09-19.85 66.29-19.93 65.49-20 63.89-19.05L63.89-19.05Q62.44-18.2 61.29-16.95 60.14-15.7 59.14-14.3L59.14-14.3Q58.59-13.6 58.42-13.6 58.24-13.6 58.54-14.5L58.54-14.5Q59.14-16.25 60.22-17.75 61.29-19.25 62.79-20.3L62.79-20.3Q63.89-21.05 64.82-21.35 65.74-21.65 66.52-21.6 67.29-21.55 67.89-21.23 68.49-20.9 68.89-20.4ZM71.59-16.9L71.59-16.9Q71.39-15.7 70.97-14.88 70.54-14.05 70.02-13.48 69.49-12.9 68.97-12.55 68.44-12.2 68.04-11.9L68.04-11.9Q67.84-11.75 67.74-11.85 67.64-11.95 67.89-12.2L67.89-12.2Q68.79-12.95 69.72-14.23 70.64-15.5 70.69-17.05L70.69-17.05Q70.69-19.7 69.39-21.1L69.39-21.1Q68.09-22.5 66.14-22.33 64.19-22.15 62.09-20.8L62.09-20.8Q60.74-19.95 59.72-18.82 58.69-17.7 57.94-16.43 57.19-15.15 56.72-13.8 56.24-12.45 56.04-11.1L56.04-11.1Q55.84-9.8 55.67-8.3 55.49-6.8 55.67-5.35 55.84-3.9 56.59-2.58 57.34-1.25 58.94-0.3L58.94-0.3Q59.19-0.15 59.47-0.1 59.74-0.05 59.74 0L59.74 0Q59.74 0.1 59.49 0.13 59.24 0.15 58.94 0.05L58.94 0.05Q57.69-0.2 56.82-0.98 55.94-1.75 55.39-2.75 54.84-3.75 54.54-4.85 54.24-5.95 54.19-6.85L54.19-6.85Q53.89-10.8 55.29-14.65L55.29-14.65Q55.59-15.45 56.07-16.45 56.54-17.45 57.24-18.48 57.94-19.5 58.89-20.48 59.84-21.45 61.04-22.2L61.04-22.2Q62.19-22.9 63.44-23.25 64.69-23.6 65.94-23.58 67.19-23.55 68.29-23.13 69.39-22.7 70.24-21.85L70.24-21.85Q70.99-21.05 71.42-19.8 71.84-18.55 71.59-16.9ZM67.04-18.7L67.04-18.7Q67.64-18 67.19-16.53 66.74-15.05 65.09-13.55L65.09-13.55Q64.19-12.7 63.34-12.18 62.49-11.65 61.19-11.25L61.19-11.25Q60.64-9.35 60.49-7.5 60.34-5.65 60.59-4.5L60.59-4.5Q60.64-4.05 60.92-3.63 61.19-3.2 61.72-2.98 62.24-2.75 63.09-2.8 63.94-2.85 65.19-3.35L65.19-3.35Q65.54-3.5 65.62-3.43 65.69-3.35 65.29-3.1L65.29-3.1Q64.39-2.4 63.39-2.13 62.39-1.85 61.52-1.95 60.64-2.05 60.02-2.55 59.39-3.05 59.19-3.9L59.19-3.9Q58.79-5.65 58.84-7.55 58.89-9.45 59.42-11.3 59.94-13.15 60.92-14.78 61.89-16.4 63.34-17.55L63.34-17.55Q66.04-19.7 67.04-18.7ZM66.54-2.75L66.54-2.75Q66.19-2.25 65.67-1.78 65.14-1.3 64.47-0.93 63.79-0.55 63.07-0.3 62.34-0.05 61.59-0.05L61.59-0.05Q60.29-0.05 59.17-0.63 58.04-1.2 57.44-2.95L57.44-2.95Q57.34-3.15 57.34-3.33 57.34-3.5 57.44-3.5L57.44-3.5Q57.64-3.6 57.84-3.38 58.04-3.15 58.24-2.9L58.24-2.9Q58.79-2.25 59.67-1.75 60.54-1.25 61.34-1.25L61.34-1.25Q62.84-1.25 63.94-1.7 65.04-2.15 66.04-2.9L66.04-2.9Q66.29-3.05 66.62-3.2 66.94-3.35 66.54-2.75ZM65.84-17.35L65.84-17.35Q65.64-17.75 64.39-16.7L64.39-16.7Q63.24-15.8 62.57-14.63 61.89-13.45 61.39-12.05L61.39-12.05Q62.34-12.5 63.14-13.08 63.94-13.65 64.64-14.2L64.64-14.2Q65.39-14.85 65.74-15.9 66.09-16.95 65.84-17.35ZM92.19-15.15L92.19-15.15Q92.14-13 91.44-10.78 90.74-8.55 89.49-6.6 88.24-4.65 86.52-3.13 84.79-1.6 82.69-0.8L82.69-0.8Q82.04-0.55 81.94-0.7L81.94-0.7Q81.94-0.85 82.12-0.95 82.29-1.05 82.54-1.3L82.54-1.3Q84.49-2.8 85.99-4.45 87.49-6.1 88.54-8.03 89.59-9.95 90.12-12.2 90.64-14.45 90.64-17.1L90.64-17.1Q90.64-19.45 89.22-20.88 87.79-22.3 85.74-22.4L85.74-22.4Q84.14-22.5 82.47-21.63 80.79-20.75 79.39-18.9L79.39-18.9Q79.34-19.85 79.89-20.75 80.44-21.65 81.37-22.33 82.29-23 83.49-23.4 84.69-23.8 85.94-23.8L85.94-23.8Q87.14-23.8 88.29-23.33 89.44-22.85 90.34-21.8 91.24-20.75 91.74-19.13 92.24-17.5 92.19-15.15ZM77.94-12.35L77.94-12.35Q77.24-9.2 76.47-5.98 75.69-2.75 74.69 0L74.69 0Q74.59 0.1 74.47 0.35 74.34 0.6 74.24 0.5L74.24 0.5Q74.19 0.5 74.09 0.25L74.09 0.25Q74.04 0.15 74.04 0L74.04 0Q74.09-0.65 74.24-1.65 74.39-2.65 74.57-3.7 74.74-4.75 74.94-5.78 75.14-6.8 75.29-7.55L75.29-7.55Q75.34-7.85 75.54-8.93 75.74-10 75.97-11.45 76.19-12.9 76.42-14.58 76.64-16.25 76.79-17.85 76.94-19.45 76.97-20.75 76.99-22.05 76.79-22.75L76.79-22.75Q76.74-22.95 76.74-23.13 76.74-23.3 76.79-23.3L76.79-23.3Q76.89-23.3 76.99-23.15 77.09-23 77.14-22.9L77.14-22.9Q77.69-22 77.97-20.65 78.24-19.3 78.32-17.8 78.39-16.3 78.27-14.85 78.14-13.4 77.94-12.35ZM79.74-9.2L79.74-9.2Q79.44-7.3 79.17-5.78 78.89-4.25 78.59-2.65L78.59-2.65Q79.74-3.85 80.62-4.83 81.49-5.8 82.17-6.8 82.84-7.8 83.42-8.9 83.99-10 84.54-11.45L84.54-11.45Q84.99-12.7 85.19-14.15 85.39-15.6 85.29-16.5L85.29-16.5Q85.29-16.8 85.12-16.95 84.94-17.1 84.49-16.9L84.49-16.9Q84.04-16.65 83.34-16.03 82.64-15.4 81.92-14.43 81.19-13.45 80.59-12.13 79.99-10.8 79.74-9.2ZM80.09-13.85L80.09-13.85Q80.29-14.5 80.94-15.5 81.59-16.5 82.44-17.35 83.29-18.2 84.24-18.68 85.19-19.15 86.04-18.7L86.04-18.7Q86.64-18.4 86.84-17.48 87.04-16.55 86.94-15.4 86.84-14.25 86.52-12.98 86.19-11.7 85.79-10.75L85.79-10.75Q84.64-7.9 82.92-5.65 81.19-3.4 78.29-1.45L78.29-1.45Q78.24-1.2 78.42-1.13 78.59-1.05 78.87-1.1 79.14-1.15 79.47-1.3 79.79-1.45 80.04-1.7L80.04-1.7Q80.59-2.15 81.27-2.75 81.94-3.35 82.59-3.9 83.24-4.45 83.69-4.78 84.14-5.1 84.24-5.05L84.24-5.05Q84.29-5 84.14-4.73 83.99-4.45 83.74-4.1 83.49-3.75 83.24-3.43 82.99-3.1 82.89-3L82.89-3Q82.24-2.3 81.72-1.78 81.19-1.25 80.44-0.75L80.44-0.75Q79.84-0.3 79.27-0.13 78.69 0.05 77.99-0.2L77.99-0.2Q77.44 2.3 76.67 5 75.89 7.7 75.34 9.8L75.34 9.8Q75.19 10.6 75.04 10.5L75.04 10.5Q74.94 10.4 74.92 10.15 74.89 9.9 74.89 9.6L74.89 9.6Q74.89 7.5 75.14 5.55 75.39 3.6 75.79 1.63 76.19-0.35 76.67-2.38 77.14-4.4 77.64-6.6L77.64-6.6Q78.19-9 78.67-11.28 79.14-13.55 79.49-16.35L79.49-16.35Q79.64-17.55 80.24-18.55 80.84-19.55 81.69-20.23 82.54-20.9 83.57-21.25 84.59-21.6 85.59-21.6L85.59-21.6Q87.24-21.55 88.47-20.38 89.69-19.2 89.69-16.6L89.69-16.6Q89.69-14.7 89.12-13.05 88.54-11.4 87.84-10.05L87.84-10.05Q87.74-9.9 87.42-9.5 87.09-9.1 86.99-9.2L86.99-9.2Q86.94-9.25 87.07-9.65 87.19-10.05 87.29-10.3L87.29-10.3Q87.59-11.1 87.84-12.45 88.09-13.8 88.12-15.2 88.14-16.6 87.77-17.8 87.39-19 86.39-19.5L86.39-19.5Q85.19-20.1 84.07-19.68 82.94-19.25 82.07-18.3 81.19-17.35 80.64-16.13 80.09-14.9 80.09-13.85ZM75.69-24.25L75.69-24.25Q76.44-21.6 76.27-18.68 76.09-15.75 75.44-12.68 74.79-9.6 73.94-6.45 73.09-3.3 72.49-0.15L72.49-0.15Q72.19 1.55 72.02 3.53 71.84 5.5 71.94 7.55 72.04 9.6 72.47 11.58 72.89 13.55 73.79 15.25L73.79 15.25Q73.99 15.65 73.87 15.65 73.74 15.65 73.49 15.35L73.49 15.35Q72.29 13.65 71.67 11.58 71.04 9.5 70.82 7.33 70.59 5.15 70.69 2.95 70.79 0.75 71.09-1.25L71.09-1.25Q71.59-4.4 72.37-7.45 73.14-10.5 73.84-13.4 74.54-16.3 75.02-19.03 75.49-21.75 75.34-24.25L75.34-24.25Q75.34-24.6 75.44-24.6L75.44-24.6Q75.49-24.65 75.59-24.5 75.69-24.35 75.69-24.25ZM75.49 15.65L75.49 15.65Q75.34 15.7 75.14 15.5L75.14 15.5 74.94 15.3Q74.39 14.65 73.94 13.95 73.49 13.25 73.19 11.6L73.19 11.6Q73.09 10.95 73.04 10 72.99 9.05 72.99 8.15 72.99 7.25 73.09 6.6 73.19 5.95 73.39 6L73.39 6Q73.59 6 73.74 6.7 73.89 7.4 73.94 8.1L73.94 8.1Q74.04 9.05 74.07 9.83 74.09 10.6 74.24 11.4L74.24 11.4Q74.44 12.4 74.74 13.35 75.04 14.3 75.44 15.15L75.44 15.15Q75.49 15.25 75.52 15.45 75.54 15.65 75.49 15.65ZM102.19-26.05L102.19-26.05Q102.49-27.15 102.59-28.73 102.69-30.3 102.59-31.88 102.49-33.45 102.11-34.85 101.74-36.25 100.99-37L100.99-37Q100.69-37.3 100.51-37.2 100.34-37.1 100.59-36.7L100.59-36.7Q101.09-35.8 101.06-33.93 101.04-32.05 100.74-29.85 100.44-27.65 99.94-25.45 99.44-23.25 98.94-21.6L98.94-21.6Q98.69-20.9 98.44-19.85 98.19-18.8 97.91-17.73 97.64-16.65 97.44-15.63 97.24-14.6 97.14-13.9L97.14-13.9Q97.14-13.75 97.09-13.33 97.04-12.9 97.19-12.8L97.19-12.8Q97.29-12.8 97.49-13.23 97.69-13.65 97.74-13.75L97.74-13.75Q98.94-16.55 100.19-19.73 101.44-22.9 102.19-26.05ZM101.04-13.85L101.04-13.85Q101.29-14.75 101.74-16.2 102.19-17.65 102.64-19.38 103.09-21.1 103.51-22.98 103.94-24.85 104.16-26.63 104.39-28.4 104.31-29.9 104.24-31.4 103.79-32.35L103.79-32.35Q103.74-32.5 103.59-32.65 103.44-32.8 103.44-32.4L103.44-32.4Q103.54-29.2 102.79-26 102.04-22.8 101.19-20.2L101.19-20.2Q100.54-18.15 99.86-16.1 99.19-14.05 98.71-12.03 98.24-10 98.11-8.05 97.99-6.1 98.49-4.3L98.49-4.3Q98.69-3.65 98.84-3.65L98.84-3.65Q98.99-3.7 98.99-4.3L98.99-4.3Q98.99-5.2 99.16-6.33 99.34-7.45 99.64-8.7 99.94-9.95 100.29-11.28 100.64-12.6 101.04-13.85ZM100.09-0.15L100.09-0.15Q98.34-0.35 96.96-1.9 95.59-3.45 95.14-5.7L95.14-5.7Q94.69-7.85 94.91-10.08 95.14-12.3 95.69-14.25L95.69-14.25Q96.49-17.25 97.59-20.43 98.69-23.6 99.46-26.7 100.24-29.8 100.34-32.68 100.44-35.55 99.34-37.95L99.34-37.95Q99.24-38 99.19-38.18 99.14-38.35 99.04-38.3L99.04-38.3Q98.89-38.3 98.99-37.95L98.99-37.95Q99.39-35.65 99.04-32.98 98.69-30.3 97.91-27.43 97.14-24.55 96.16-21.5 95.19-18.45 94.34-15.4L94.34-15.4Q93.69-13.15 93.46-10.63 93.24-8.1 93.79-5.55L93.79-5.55Q94.09-4.25 94.71-3.2 95.34-2.15 96.19-1.43 97.04-0.7 98.04-0.3 99.04 0.1 100.09 0.05L100.09 0.05 100.24 0.05Q100.29 0.05 100.39 0L100.39 0Q100.39-0.15 100.09-0.15ZM98.59-2.65L98.59-2.65Q97.69-3.7 97.14-5.35L97.14-5.35Q97.09-5.5 96.99-5.83 96.89-6.15 96.79-6.48 96.69-6.8 96.59-7.08 96.49-7.35 96.44-7.35L96.44-7.35Q96.24-7.35 96.24-6.7 96.24-6.05 96.39-5.2 96.54-4.35 96.84-3.48 97.14-2.6 97.54-2.1L97.54-2.1Q98.34-1.2 99.16-1 99.99-0.8 100.84-0.8L100.84-0.8Q101.14-0.8 101.31-0.98 101.49-1.15 101.04-1.25L101.04-1.25Q99.59-1.4 98.59-2.65ZM120.09-15.8L120.09-15.8Q119.49-13.95 118.66-12.25 117.84-10.55 116.94-8.85L116.94-8.85Q116.84-8.75 116.64-8.38 116.44-8 116.29-8.1L116.29-8.1Q116.19-8.1 116.21-8.4 116.24-8.7 116.24-8.85L116.24-8.85Q116.29-9.25 116.46-10 116.64-10.75 116.86-11.58 117.09-12.4 117.31-13.18 117.54-13.95 117.69-14.4L117.69-14.4Q118.54-17.1 118.79-19.2 119.04-21.3 118.49-22.75L118.49-22.75Q118.39-23 118.49-23L118.49-23Q118.59-23 118.69-22.9 118.79-22.8 118.84-22.75L118.84-22.75Q119.39-22.15 119.74-21.23 120.09-20.3 120.24-19.33 120.39-18.35 120.34-17.4 120.29-16.45 120.09-15.8ZM121.44-19.4L121.44-19.4Q122.09-18.4 122.04-16.9 121.99-15.4 121.66-13.8 121.34-12.2 120.86-10.75 120.39-9.3 120.14-8.45L120.14-8.45Q119.64-6.8 118.94-5.08 118.24-3.35 117.69-2.1L117.69-2.1Q117.49-1.65 117.39-1.7L117.39-1.7Q117.24-1.75 117.21-1.93 117.19-2.1 117.19-2.2L117.19-2.2Q117.19-4.9 117.96-7.4 118.74-9.9 119.64-12.45L119.64-12.45Q120.19-14.1 120.64-15.73 121.09-17.35 121.09-19.3L121.09-19.3Q121.09-19.65 121.19-19.65L121.19-19.65Q121.24-19.65 121.29-19.58 121.34-19.5 121.44-19.4ZM111.44-3.7L111.44-3.7Q111.54-3.55 111.09-3.25 110.64-2.95 110.49-2.9L110.49-2.9Q108.29-2.1 107.06-2.85 105.84-3.6 105.31-5.1 104.79-6.6 104.79-8.43 104.79-10.25 104.99-11.7L104.99-11.7Q105.14-12.95 105.56-14.48 105.99-16 106.59-17.48 107.19-18.95 107.96-20.23 108.74-21.5 109.64-22.2L109.64-22.2Q109.74-22.25 109.86-22.35 109.99-22.45 110.09-22.45L110.09-22.45Q110.24-22.4 109.94-21.9L109.94-21.9Q109.64-21.4 109.21-20.5 108.79-19.6 108.34-18.43 107.89-17.25 107.46-15.95 107.04-14.65 106.79-13.35L106.79-13.35Q106.54-12.05 106.44-10.85 106.34-9.65 106.34-8.7 106.34-7.75 106.39-7.1 106.44-6.45 106.49-6.25L106.49-6.25Q106.84-4.7 107.81-3.98 108.79-3.25 110.44-3.55L110.44-3.55Q110.49-3.55 110.94-3.65 111.39-3.75 111.44-3.7ZM117.89 0.15L117.89 0.15Q118.09 0.35 118.09 0.45L118.09 0.45Q118.09 0.55 117.86 0.5 117.64 0.45 117.54 0.4L117.54 0.4Q117.14 0.2 116.54-0.18 115.94-0.55 115.64-1.5L115.64-1.5Q115.49-1.9 115.44-2.48 115.39-3.05 115.39-3.55 115.39-4.05 115.49-4.38 115.59-4.7 115.74-4.65L115.74-4.65Q115.84-4.6 115.96-4.2 116.09-3.8 116.19-3.35L116.19-3.35Q116.29-2.8 116.44-2.33 116.59-1.85 116.79-1.35L116.79-1.35Q117.04-0.8 117.29-0.48 117.54-0.15 117.89 0.15ZM113.29-2.6L113.29-2.6Q112.74-1.75 111.61-0.88 110.49 0 108.59 0L108.59 0Q107.09 0 106.01-0.8 104.94-1.6 104.26-2.8 103.59-4 103.31-5.43 103.04-6.85 103.04-8.15L103.04-8.15Q103.09-9.75 103.31-11.35 103.54-12.95 103.91-14.35 104.29-15.75 104.76-16.85 105.24-17.95 105.74-18.65L105.74-18.65Q105.84-18.7 105.96-18.88 106.09-19.05 106.19-18.95L106.19-18.95Q106.24-18.9 106.16-18.73 106.09-18.55 106.04-18.45L106.04-18.45Q105.59-16.95 105.16-15.28 104.74-13.6 104.49-11.9 104.24-10.2 104.24-8.55 104.24-6.9 104.54-5.5L104.54-5.5Q104.74-4.55 105.26-3.75 105.79-2.95 106.41-2.4 107.04-1.85 107.76-1.6 108.49-1.35 109.19-1.45L109.19-1.45Q110.64-1.65 111.39-2.27 112.14-2.9 112.46-3.78 112.79-4.65 112.86-5.68 112.94-6.7 113.09-7.75L113.09-7.75Q112.84-7.05 112.11-6.38 111.39-5.7 110.56-5.33 109.74-4.95 108.96-5 108.19-5.05 107.79-5.9L107.79-5.9Q107.29-7 107.24-8.3 107.19-9.6 107.29-11.15L107.29-11.15Q107.39-12.7 107.74-14.35 108.09-16 108.69-17.53 109.29-19.05 110.11-20.4 110.94-21.75 111.99-22.8L111.99-22.8 112.19-23Q112.34-23.15 112.49-23.15L112.49-23.15Q112.49-23.15 112.29-22.65L112.29-22.65Q110.84-19.95 109.84-17.07 108.84-14.2 108.64-11.25L108.64-11.25Q108.39-8 108.96-7 109.54-6 110.39-6.43 111.24-6.85 112.21-8.28 113.19-9.7 113.79-11.35L113.79-11.35Q114.34-12.85 114.96-14.45 115.59-16.05 116.11-17.68 116.64-19.3 116.91-20.85 117.19-22.4 117.04-23.75L117.04-23.75Q117.04-24 117.14-24L117.14-24Q117.19-24 117.19-23.95L117.19-23.95Q117.19-23.85 117.24-23.85L117.24-23.85Q117.29-23.8 117.29-23.75L117.29-23.75Q118.09-22.05 118.01-20.3 117.94-18.55 117.41-16.75 116.89-14.95 116.16-13.08 115.44-11.2 114.94-9.3L114.94-9.3Q114.64-8.1 114.49-6.78 114.34-5.45 114.44-4.15 114.54-2.85 114.99-1.68 115.44-0.5 116.29 0.3L116.29 0.3Q116.39 0.4 116.39 0.45L116.39 0.45Q116.39 0.55 116.26 0.53 116.14 0.5 116.04 0.45L116.04 0.45Q115.09 0.1 114.39-0.7 113.69-1.5 113.29-2.6ZM141.78-22.2L141.78-22.35Q141.68-22.4 141.56-22.2 141.43-22 141.33-21.9L141.33-21.9Q140.58-20.95 139.98-19.55 139.38-18.15 138.96-16.6 138.53-15.05 138.26-13.5 137.98-11.95 137.78-10.75L137.78-10.75Q137.53-9.05 137.36-7.53 137.18-6 137.03-4.55 136.88-3.1 136.78-1.63 136.68-0.15 136.53 1.4L136.53 1.4Q136.58 1.45 136.58 1.68 136.58 1.9 136.58 2.13 136.58 2.35 136.58 2.53 136.58 2.7 136.68 2.7L136.68 2.7Q136.73 2.7 136.83 2.53 136.93 2.35 137.03 2.15 137.13 1.95 137.18 1.75 137.23 1.55 137.23 1.55L137.23 1.55Q137.78 0.35 138.18-1.25 138.58-2.85 138.83-4.45L138.83-4.45Q138.88-4.85 139.03-6.1 139.18-7.35 139.38-9 139.58-10.65 139.86-12.58 140.13-14.5 140.41-16.28 140.68-18.05 141.01-19.5 141.33-20.95 141.63-21.7L141.63-21.7Q141.68-21.9 141.73-22 141.78-22.1 141.78-22.2L141.78-22.2ZM140.13-22.55L140.13-22.55Q140.13-22.6 139.78-22.6L139.78-22.6Q139.63-22.6 139.48-22.55L139.48-22.55Q137.58-22.35 135.98-21.53 134.38-20.7 133.06-19.48 131.73-18.25 130.71-16.7 129.68-15.15 129.03-13.5L129.03-13.5Q128.33-11.8 127.98-9.9 127.63-8 127.73-6.35L127.73-6.35Q127.88-4.2 129.63-5.95L129.63-5.95Q131.13-7.45 132.46-9.2 133.78-10.95 134.96-12.9 136.13-14.85 137.18-16.88 138.23-18.9 139.28-20.95L139.28-20.95Q139.48-21.35 139.43-21.35L139.43-21.35Q139.33-21.45 139.21-21.35 139.08-21.25 139.08-21.15L139.08-21.15Q136.38-17.7 134.06-14.55 131.73-11.4 129.78-8.3L129.78-8.3Q129.53-8.05 129.46-8.15 129.38-8.25 129.43-8.5L129.43-8.5Q129.53-9.65 129.81-10.88 130.08-12.1 130.58-13.35L130.58-13.35Q131.78-16.4 134.03-18.75 136.28-21.1 139.68-22.25L139.68-22.25Q140.13-22.45 140.13-22.55ZM137.43-22.9L137.43-22.9Q137.38-23 137.21-23 137.03-23 136.88-23L136.88-23Q135.48-23 133.96-22.2 132.43-21.4 131.03-20.18 129.63-18.95 128.53-17.48 127.43-16 126.88-14.65L126.88-14.65Q126.18-12.85 125.71-11.18 125.23-9.5 125.18-7.8L125.18-7.8Q125.13-6.9 125.26-6.05 125.38-5.2 125.73-4.2L125.73-4.2Q125.93-3.6 126.41-3.25 126.88-2.9 127.41-2.8 127.93-2.7 128.48-2.8 129.03-2.9 129.43-3.2L129.43-3.2Q129.48-3.25 129.66-3.4 129.83-3.55 130.01-3.73 130.18-3.9 130.31-4.05 130.43-4.2 130.38-4.3L130.38-4.3Q130.33-4.4 129.91-4.17 129.48-3.95 129.18-3.9L129.18-3.9Q128.13-3.7 127.61-4.05 127.08-4.4 126.86-5.08 126.63-5.75 126.66-6.58 126.68-7.4 126.78-8.2L126.78-8.2Q126.78-8.5 126.91-9.25 127.03-10 127.33-11.08 127.63-12.15 128.16-13.45 128.68-14.75 129.43-16.05L129.43-16.05Q130.18-17.35 131.21-18.45 132.23-19.55 133.28-20.4 134.33-21.25 135.31-21.8 136.28-22.35 136.98-22.55L136.98-22.55Q137.33-22.65 137.38-22.73 137.43-22.8 137.43-22.9ZM143.48-23.25L143.48-23.45Q143.33-23.45 143.23-23.25L143.23-23.25Q143.18-23.15 143.13-23L143.13-23Q141.63-19.9 141.03-16.63 140.43-13.35 140.13-9.95 139.83-6.55 139.53-3.1 139.23 0.35 138.33 3.8L138.33 3.8Q138.03 4.9 137.73 6.1 137.43 7.3 136.93 8.45 136.43 9.6 135.61 10.63 134.78 11.65 133.38 12.35L133.38 12.35Q131.78 13.2 130.43 13.08 129.08 12.95 127.93 12.35 126.78 11.75 125.83 10.83 124.88 9.9 124.18 9.15L124.18 9.15Q124.08 9.05 123.98 8.93 123.88 8.8 123.83 8.85L123.83 8.85Q123.73 8.9 123.81 9.08 123.88 9.25 123.93 9.35L123.93 9.35Q125.08 11.5 127.43 13.1L127.43 13.1Q127.98 13.5 128.78 13.8 129.58 14.1 130.51 14.23 131.43 14.35 132.41 14.18 133.38 14 134.28 13.4L134.28 13.4Q135.93 12.3 136.91 11.08 137.88 9.85 138.48 8.58 139.08 7.3 139.41 5.95 139.73 4.6 140.03 3.3L140.03 3.3Q140.88-0.1 141.21-3.48 141.53-6.85 141.73-10.15 141.93-13.45 142.23-16.68 142.53-19.9 143.38-22.95L143.38-22.95Q143.48-23.15 143.48-23.25L143.48-23.25ZM137.58-13.9L137.58-13.9Q137.83-14.95 138.26-16.07 138.68-17.2 138.93-18.3L138.93-18.3Q138.93-18.4 139.01-18.65 139.08-18.9 139.03-18.9L139.03-18.9Q138.93-18.95 138.73-18.65 138.53-18.35 138.53-18.3L138.53-18.3Q137.83-17.15 137.28-15.88 136.73-14.6 136.28-13.55L136.28-13.55Q136.18-13.3 135.86-12.7 135.53-12.1 135.21-11.43 134.88-10.75 134.66-10.18 134.43-9.6 134.58-9.5L134.58-9.5Q134.68-9.5 134.88-9.73 135.08-9.95 135.18-10.05L135.18-10.05Q135.33-10.3 135.53-10.58 135.73-10.85 135.93-11.1L135.93-11.1Q135.63-9.85 135.41-9.03 135.18-8.2 134.93-7.55 134.68-6.9 134.36-6.33 134.03-5.75 133.48-5L133.48-5Q133.08-4.45 132.51-3.83 131.93-3.2 131.21-2.68 130.48-2.15 129.63-1.83 128.78-1.5 127.83-1.5L127.83-1.5Q126.63-1.5 125.93-2.13 125.23-2.75 124.88-3.68 124.53-4.6 124.43-5.65 124.33-6.7 124.38-7.6L124.38-7.6Q124.58-11.2 126.06-14.63 127.53-18.05 130.18-20.75L130.18-20.75Q130.18-20.8 130.33-20.95 130.48-21.1 130.48-21.15L130.48-21.15Q130.38-21.25 130.23-21.15L130.23-21.15 130.03-21.05Q129.13-20.5 128.16-19.55 127.18-18.6 126.31-17.32 125.43-16.05 124.71-14.5 123.98-12.95 123.48-11.3L123.48-11.3Q123.23-10.45 123.11-9.28 122.98-8.1 123.06-6.83 123.13-5.55 123.41-4.28 123.68-3 124.31-2.02 124.93-1.05 125.91-0.48 126.88 0.1 128.33 0L128.33 0Q129.78-0.1 130.66-0.5 131.53-0.9 132.08-1.35L132.08-1.35Q132.78-1.9 133.33-2.5 133.88-3.1 134.43-3.65L134.43-3.65Q134.13-1.9 133.86-0.68 133.58 0.55 133.33 1.65L133.33 1.65Q132.98 3.15 132.68 4.53 132.38 5.9 132.03 6.95 131.68 8 131.23 8.68 130.78 9.35 130.18 9.45L130.18 9.45Q129.48 9.45 129.48 9.6L129.48 9.6Q129.43 9.75 129.68 9.85 129.93 9.95 130.18 10L130.18 10Q130.93 10.15 131.61 9.75 132.28 9.35 132.81 8.58 133.33 7.8 133.76 6.75 134.18 5.7 134.48 4.6L134.48 4.6Q135.08 2.3 135.48 0.13 135.88-2.05 136.23-4.45L136.23-4.45Q136.58-6.8 136.81-9.15 137.03-11.5 137.58-13.9ZM131.98 10.9L131.98 10.9Q131.88 10.8 131.71 10.83 131.53 10.85 131.48 10.85L131.48 10.85Q130.63 11 129.81 10.8 128.98 10.6 128.13 10.25L128.13 10.25Q127.18 9.85 126.38 9.28 125.58 8.7 124.58 8.05L124.58 8.05Q124.48 7.95 124.28 7.85 124.08 7.75 124.08 7.85L124.08 7.85Q124.03 7.9 124.16 8.1 124.28 8.3 124.38 8.4L124.38 8.4Q125.03 9.25 125.76 10 126.48 10.75 127.63 11.2L127.63 11.2Q128.38 11.5 129.18 11.6 129.98 11.7 130.66 11.63 131.33 11.55 131.73 11.35 132.13 11.15 131.98 10.9Z" opacity="1" transform="matrix(1,0,0,1,0,0)" fill="#000000" class="wordmark-text-0" data-fill-palette-color="primary" id="text-0"></path></svg></g></svg></g></svg></g></svg></g><g transform="matrix(1,0,0,1,430.37084823146296,0)"><svg viewBox="0 0 228.50072403203905 228.50072403203905" height="228.50072403203905" width="228.50072403203905"><g><svg></svg></g><g id="icon-0"><svg viewBox="0 0 228.50072403203905 228.50072403203905" height="228.50072403203905" width="228.50072403203905"><g><path transform="scale(2.28501,2.28501)" d="M30 100c-16.569 0-30-13.431-30-30v-40c0-16.569 13.431-30 30-30h40c16.569 0 30 13.431 30 30v40c0 16.569-13.431 30-30 30z" fill="#000000" fill-rule="nonzero" stroke="none" stroke-width="1" stroke-linecap="butt" stroke-linejoin="miter" stroke-miterlimit="10" stroke-dasharray="" stroke-dashoffset="0" font-family="none" font-weight="none" font-size="none" text-anchor="none" style="mix-blend-mode: normal" data-fill-palette-color="accent"></path></g><g transform="matrix(1,0,0,1,45.700144806407806,45.700144806407806)"><svg viewBox="0 0 137.10043441922343 137.10043441922343" height="137.10043441922343" width="137.10043441922343"><g><svg xmlns="http://www.w3.org/2000/svg" xmlns:xlink="http://www.w3.org/1999/xlink" version="1.1" x="0" y="0" viewBox="0 0 100 100" enable-background="new 0 0 100 100" xml:space="preserve" height="137.10043441922343" width="137.10043441922343" class="icon-cg-0" data-fill-palette-color="quaternary" id="cg-0"><path d="M93.443 17.74h-9.7-0.61l0 0L83.127 6.396C83.127 5.627 82.503 5 81.731 5s-1.396 0.627-1.396 1.396l0.006 11.344v0.005h-0.608l-9.256-0.005h-0.61l0 0L69.861 6.401c0-0.774-0.624-1.396-1.396-1.396S67.07 5.627 67.07 6.401l0.006 11.339v0.005h-0.605l0 0H56.76l0.002 19.156c0 6.787 5.681 12.494 13.408 14.233l0.438 0.06c-0.006 0.082-0.044 0.147-0.044 0.229 0.02 1.908-0.714 3.287-2.311 4.334-4.095 2.692-12.961 2.42-19.771-0.616-5.661-2.513-22.884-10.183-35.61 2.546C7.708 62.854 5.65 69.341 6.917 76.46c1.079 6.063 4.631 12.358 9.998 17.723C17.46 94.728 18.174 95 18.888 95c0.714 0 1.431-0.272 1.974-0.817 1.09-1.091 1.09-2.856 0-3.947-4.568-4.563-7.569-9.807-8.45-14.756-0.946-5.315 0.537-9.971 4.408-13.847 6.928-6.929 15.994-7.354 29.393-1.396 7.336 3.271 18.625 4.448 25.104 0.186 3.14-2.061 4.797-5.119 4.818-8.848l0.755 0.044c9.298-0.725 16.563-7.038 16.556-14.724L93.443 17.74zM76.82 46.021l-5.25-0.327-0.382-0.054c-5.219-1.249-8.844-4.813-8.844-8.738l-0.003-13.574h4.135l4.001-0.005 9.259 0.005 4.007-0.005h4.118l0.003 13.579C87.867 41.447 83.048 45.399 76.82 46.021z" fill="#ffffff" data-fill-palette-color="quaternary"></path></svg></g></svg></g></svg></g></svg></g></svg></g><defs></defs></svg><rect width="395.52" height="137.1687748777357" fill="none" stroke="none" visibility="hidden"></rect></g></svg></g></svg>